<?xml version="1.0" encoding="utf-8"?>
<!-- Generator: Adobe Illustrator 26.0.3, SVG Export Plug-In . SVG Version: 6.00 Build 0)  -->
<svg version="1.0" id="katman_1" xmlns="http://www.w3.org/2000/svg" xmlns:xlink="http://www.w3.org/1999/xlink" x="0px" y="0px"
	 viewBox="0 0 600 450" style="enable-background:new 0 0 600 450;" xml:space="preserve">
<style type="text/css">
	.st0{fill:url(#SVGID_1_);}
	.st1{fill:#FFFFFF;}
	.st2{fill:#72C3B5;}
	.st3{fill:#010202;}
</style>
<g>
	
		<linearGradient id="SVGID_1_" gradientUnits="userSpaceOnUse" x1="216.3866" y1="217.991" x2="216.3866" y2="89.9911" gradientTransform="matrix(1 0 0 -1 -120.9449 379.3622)">
		<stop  offset="0" style="stop-color:#203D51"/>
		<stop  offset="1" style="stop-color:#143247"/>
	</linearGradient>
	<path class="st0" d="M60.6,161.4h69.6c16.1,0,29.2,13.1,29.2,29.2v69.6c0,16.1-13.1,29.2-29.2,29.2H60.6
		c-16.1,0-29.2-13.1-29.2-29.2v-69.6C31.4,174.4,44.5,161.4,60.6,161.4z"/>
	<path class="st1" d="M80.9,219.3l-17.4-17.4L85,180.4l21.5,21.5l-24.6,24.7l-0.1-0.1C83.1,224.2,82.8,221.2,80.9,219.3z"/>
	<path class="st2" d="M130.4,225.5L85,271.1l-21.5-21.5L109,204L130.4,225.5z"/>
</g>
<path class="st3" d="M246,171.6h-8.5l-7.9,32l-9.7-32h-8.2l-9.7,31.9l-7.9-31.9h-8.8l12.2,44.8h8.3l9.9-32.7l9.9,32.7h8.2L246,171.6
	z M262,182.8c-9.6,0-16.3,6.4-16.3,17.1c0,10.8,6.7,17.2,16.3,17.2c9.7,0,16.4-6.4,16.4-17.2C278.3,189.2,271.6,182.8,262,182.8z
	 M261.9,190.2c4.8,0,8.3,3.1,8.3,9.7c0,6.2-3,9.8-8.1,9.8c-4.8,0-8.3-3.1-8.3-9.8C253.8,193.8,256.8,190.2,261.9,190.2z
	 M301.7,182.8c-5.5,0-8.2,2.3-10,5.4v-4.8h-7.9v33h7.9v-17.8c0-5.4,2.5-8.6,7.2-8.6c3.9,0,6.1,2.2,6.1,5.9v20.5h7.9v-21.2
	C313,187.3,309.2,182.8,301.7,182.8z M351.2,170.9h-7.9v16.9c-2-3.2-6-4.9-10.3-4.9c-8.1,0-14.8,5.6-14.8,17
	c0,11.6,6.7,17.2,14.8,17.2c4.5,0,8.6-2,10.4-5.8v5.1h7.8V170.9z M334.8,209.8c-4.6,0-8.6-3.3-8.6-9.9c0-6.7,4-10,8.6-10
	c4.3,0,8.6,3.2,8.6,10C343.4,206.6,339.1,209.8,334.8,209.8z M387.2,202.3V199c0-10.9-6.8-16.2-14.8-16.2c-8.4,0-15.9,5.8-15.9,17.3
	c0,11.5,7.4,17,15.7,17c6.7,0,13.1-3.6,14.7-10.6h-7.4c-1.2,2.6-3.8,3.8-7,3.8c-4.7,0-8.1-2.6-8.3-7.9H387.2z M372.4,189.7
	c4.3,0,7,2.4,7,6.8h-15C365.2,191.7,368.6,189.7,372.4,189.7z M411.3,183h-2.2c-3.8,0-6.9,1.7-8.6,5.2v-4.9h-7.9v33h7.9v-16.1
	c0-6.5,3-9.5,8.6-9.5h2.1V183z M428.6,196.7c-4-0.6-6.9-1.1-6.9-3.6c0-1.9,1.5-3.6,5.4-3.6c3.4,0,5.7,1.3,6,4.5h7.7
	c-0.4-7.4-6.1-11.1-13.8-11.1c-6.8,0-13.1,3-13.1,10.5c0,8.1,7.4,9.2,13.8,10.3c4.5,0.8,6.1,1.3,6.1,3.3c0,2.5-2.4,3.6-5.8,3.6
	c-3.7,0-6.6-1.4-7.2-4.7h-8c0.6,8.3,7.9,11.3,14.8,11.3c7.4,0,14-3.5,14-10.9C441.7,198.5,434.5,197.6,428.6,196.7z M464.7,182.8
	c-5.6,0-8.1,2.3-10,5.4v-17.4h-7.9v45.5h7.9v-17.8c0-5.4,2.5-8.6,7.2-8.6c3.9,0,6.1,2.2,6.1,5.9v20.5h7.9v-21.2
	C476.1,187.3,472.2,182.8,464.7,182.8z M497.5,182.8c-8.2,0-14,3.7-15.3,11.4h7.6c0.7-2.5,2.1-4.9,7-4.9c2.8,0,5.4,0.9,5.4,3.4
	c0,2.8-2.6,3.3-3.8,3.5l-6.7,1c-3,0.4-10.5,1.9-10.5,10.1c0,7,5.4,9.8,10.6,9.8c3.5,0,7.8-1.3,10.4-5.5v4.8h7.7v-22.8
	C510,185.8,504.7,182.8,497.5,182.8z M493.9,210.5c-2.8,0-4.7-1.2-4.7-3.8c0-3.6,3.9-4.2,5.3-4.4l3.3-0.5c1.7-0.3,3-0.4,4.2-1v1.8
	C502,207,498.7,210.5,493.9,210.5z M536,183h-2.2c-3.8,0-6.9,1.7-8.6,5.2v-4.9h-7.9v33h7.9v-16.1c0-6.5,3-9.5,8.6-9.5h2.1V183z
	 M567.9,202.3V199c0-10.9-6.8-16.2-14.8-16.2c-8.4,0-15.9,5.8-15.9,17.3c0,11.5,7.4,17,15.7,17c6.7,0,13.1-3.6,14.7-10.6h-7.4
	c-1.2,2.6-3.8,3.8-7,3.8c-4.7,0-8.1-2.6-8.3-7.9H567.9z M553.1,189.7c4.3,0,7,2.4,7,6.8h-15C545.9,191.7,549.3,189.7,553.1,189.7z
	 M197.5,261.6h20v-7.8h-20v-10.4h21.8v-7.8h-30.1v44.8h8.3V261.6z M222.4,243.1h8.4v-9h-8.4V243.1z M222.6,280.4h7.9v-33h-7.9V280.4
	z M246,234.9h-7.9v45.5h7.9V234.9z M289.1,246.8c-6,0-8.4,3.1-9.7,5.4c-1.5-3.5-4.8-5.4-9.2-5.4c-5,0-7.6,2.8-8.6,5.4v-4.9h-7.8v33
	h7.9v-18.6c0-5.4,2.6-7.8,6.3-7.8c3.3,0,5.3,1.8,5.3,5.7v20.7h7.9v-18.5c0-5.6,2.6-7.9,6.3-7.9c3.4,0,5.2,1.8,5.2,5.7v20.7h7.9
	v-22.2C300.7,251.1,296.2,246.8,289.1,246.8z M322.1,246.8c-9.6,0-16.3,6.4-16.3,17.1c0,10.8,6.7,17.2,16.3,17.2
	c9.7,0,16.4-6.4,16.4-17.2C338.5,253.2,331.8,246.8,322.1,246.8z M322,254.2c4.8,0,8.3,3.1,8.3,9.7c0,6.2-3,9.8-8.1,9.8
	c-4.8,0-8.3-3.1-8.3-9.8C313.9,257.8,316.9,254.2,322,254.2z M362.5,247h-2.2c-3.8,0-6.9,1.7-8.6,5.2v-4.9h-7.9v33h7.9v-16.1
	c0-6.5,3-9.5,8.6-9.5h2.1V247z M380.1,246.8c-8.2,0-14,3.7-15.3,11.4h7.6c0.7-2.5,2.1-4.9,7-4.9c2.8,0,5.4,0.9,5.4,3.4
	c0,2.8-2.6,3.3-3.8,3.5l-6.7,1c-3,0.4-10.5,1.9-10.5,10.1c0,7,5.4,9.8,10.6,9.8c3.5,0,7.8-1.3,10.4-5.5v4.8h7.7v-22.8
	C392.6,249.8,387.3,246.8,380.1,246.8z M376.5,274.5c-2.8,0-4.7-1.2-4.7-3.8c0-3.6,3.9-4.2,5.3-4.4l3.3-0.5c1.7-0.3,3-0.4,4.2-1v1.8
	C384.6,271,381.3,274.5,376.5,274.5z"/>
</svg>
